<svg width="400" height="52" viewBox="0 0 400 52" fill="none" xmlns="http://www.w3.org/2000/svg">
<path d="M86.432 0.816V6.144H72.752V51H66.2V6.144H52.448V0.816H86.432Z" fill="white"/>
<path d="M117.249 51.504C112.593 51.504 108.345 50.424 104.505 48.264C100.665 46.056 97.6171 43.008 95.3611 39.12C93.1531 35.184 92.0491 30.768 92.0491 25.872C92.0491 20.976 93.1531 16.584 95.3611 12.696C97.6171 8.76 100.665 5.712 104.505 3.552C108.345 1.344 112.593 0.239998 117.249 0.239998C121.953 0.239998 126.225 1.344 130.065 3.552C133.905 5.712 136.929 8.736 139.137 12.624C141.345 16.512 142.449 20.928 142.449 25.872C142.449 30.816 141.345 35.232 139.137 39.12C136.929 43.008 133.905 46.056 130.065 48.264C126.225 50.424 121.953 51.504 117.249 51.504ZM117.249 45.816C120.753 45.816 123.897 45 126.681 43.368C129.513 41.736 131.721 39.408 133.305 36.384C134.937 33.36 135.753 29.856 135.753 25.872C135.753 21.84 134.937 18.336 133.305 15.36C131.721 12.336 129.537 10.008 126.753 8.376C123.969 6.744 120.801 5.928 117.249 5.928C113.697 5.928 110.529 6.744 107.745 8.376C104.961 10.008 102.753 12.336 101.121 15.36C99.5371 18.336 98.7451 21.84 98.7451 25.872C98.7451 29.856 99.5371 33.36 101.121 36.384C102.753 39.408 104.961 41.736 107.745 43.368C110.577 45 113.745 45.816 117.249 45.816Z" fill="white"/>
<path d="M166.723 0.816C172.195 0.816 176.923 1.848 180.907 3.912C184.939 5.928 188.011 8.832 190.123 12.624C192.283 16.416 193.363 20.88 193.363 26.016C193.363 31.152 192.283 35.616 190.123 39.408C188.011 43.152 184.939 46.032 180.907 48.048C176.923 50.016 172.195 51 166.723 51H151.099V0.816H166.723ZM166.723 45.6C173.203 45.6 178.147 43.896 181.555 40.488C184.963 37.032 186.667 32.208 186.667 26.016C186.667 19.776 184.939 14.904 181.483 11.4C178.075 7.896 173.155 6.144 166.723 6.144H157.651V45.6H166.723Z" fill="white"/>
<path d="M224.757 51.504C220.101 51.504 215.853 50.424 212.013 48.264C208.173 46.056 205.125 43.008 202.869 39.12C200.661 35.184 199.557 30.768 199.557 25.872C199.557 20.976 200.661 16.584 202.869 12.696C205.125 8.76 208.173 5.712 212.013 3.552C215.853 1.344 220.101 0.239998 224.757 0.239998C229.461 0.239998 233.733 1.344 237.573 3.552C241.413 5.712 244.437 8.736 246.645 12.624C248.853 16.512 249.957 20.928 249.957 25.872C249.957 30.816 248.853 35.232 246.645 39.12C244.437 43.008 241.413 46.056 237.573 48.264C233.733 50.424 229.461 51.504 224.757 51.504ZM224.757 45.816C228.261 45.816 231.405 45 234.189 43.368C237.021 41.736 239.229 39.408 240.813 36.384C242.445 33.36 243.261 29.856 243.261 25.872C243.261 21.84 242.445 18.336 240.813 15.36C239.229 12.336 237.045 10.008 234.261 8.376C231.477 6.744 228.309 5.928 224.757 5.928C221.205 5.928 218.037 6.744 215.253 8.376C212.469 10.008 210.261 12.336 208.629 15.36C207.045 18.336 206.253 21.84 206.253 25.872C206.253 29.856 207.045 33.36 208.629 36.384C210.261 39.408 212.469 41.736 215.253 43.368C218.085 45 221.253 45.816 224.757 45.816Z" fill="white"/>
<path d="M284.354 45.672H301.922V51H277.802V0.816H284.354V45.672Z" fill="white"/>
<path d="M315.432 0.816V51H308.88V0.816H315.432Z" fill="white"/>
<path d="M342.511 51.504C339.199 51.504 336.223 50.928 333.583 49.776C330.991 48.576 328.951 46.944 327.463 44.88C325.975 42.768 325.207 40.344 325.159 37.608H332.143C332.383 39.96 333.343 41.952 335.023 43.584C336.751 45.168 339.247 45.96 342.511 45.96C345.631 45.96 348.079 45.192 349.855 43.656C351.679 42.072 352.591 40.056 352.591 37.608C352.591 35.688 352.063 34.128 351.007 32.928C349.951 31.728 348.631 30.816 347.047 30.192C345.463 29.568 343.327 28.896 340.639 28.176C337.327 27.312 334.663 26.448 332.647 25.584C330.679 24.72 328.975 23.376 327.535 21.552C326.143 19.68 325.447 17.184 325.447 14.064C325.447 11.328 326.143 8.904 327.535 6.792C328.927 4.68 330.871 3.048 333.367 1.896C335.911 0.743999 338.815 0.167999 342.079 0.167999C346.783 0.167999 350.623 1.344 353.599 3.696C356.623 6.048 358.327 9.168 358.711 13.056H351.511C351.271 11.136 350.263 9.456 348.487 8.016C346.711 6.528 344.359 5.784 341.431 5.784C338.695 5.784 336.463 6.504 334.735 7.944C333.007 9.336 332.143 11.304 332.143 13.848C332.143 15.672 332.647 17.16 333.655 18.312C334.711 19.464 335.983 20.352 337.471 20.976C339.007 21.552 341.143 22.224 343.879 22.992C347.191 23.904 349.855 24.816 351.871 25.728C353.887 26.592 355.615 27.96 357.055 29.832C358.495 31.656 359.215 34.152 359.215 37.32C359.215 39.768 358.567 42.072 357.271 44.232C355.975 46.392 354.055 48.144 351.511 49.488C348.967 50.832 345.967 51.504 342.511 51.504Z" fill="white"/>
<path d="M399.745 0.816V6.144H386.065V51H379.513V6.144H365.76V0.816H399.745Z" fill="white"/>
<path d="M25 51L0 31.7303L3.47222 29.184L25 45.7697L46.5278 29.184L50 31.7303L25 51ZM25 40.5393L0 21.2697L25 2L50 21.2697L25 40.5393ZM25 35.309L43.1944 21.2697L25 7.23034L6.80556 21.2697L25 35.309Z" fill="#2D2D2D"/>
</svg>
